<svg width="263" height="263" viewBox="0 0 263 263" fill="none" xmlns="http://www.w3.org/2000/svg">
<g clip-path="url(#clip0_2_221)">
<path d="M109.346 118.692H126.84V127.441H109.346V118.692Z" fill="#6C45E5"/>
<path d="M258.672 105.616L228.963 101.373C223.545 98.045 217.923 95.0658 212.127 92.4515C192.985 83.781 172.209 79.3069 151.193 79.3301H146.032C121.231 79.3479 96.8264 85.5713 75.0433 97.4328L60.0497 105.612C42.4987 105.81 25.2858 110.478 10.0376 119.17C3.84086 122.724 0.0145842 129.317 0.00390625 136.459V162.43C0.00390625 164.846 1.96153 166.804 4.37831 166.804H19.0641C23.8407 180.431 38.7596 187.606 52.3865 182.83C59.8877 180.201 65.7838 174.303 68.4123 166.804H185.265C190.042 180.431 204.96 187.606 218.587 182.83C226.087 180.201 231.985 174.303 234.613 166.804H236.183C236.74 166.804 237.292 166.699 237.809 166.493L251.976 160.808C258.304 158.303 262.449 152.177 262.426 145.373V109.946C262.426 107.771 260.826 105.925 258.672 105.616ZM60.8808 161.556C58.9463 171.022 49.7045 177.128 40.2385 175.193C30.7707 173.259 24.6647 164.017 26.5992 154.549C28.5354 145.083 37.7772 138.977 47.2432 140.912C55.3888 142.576 61.2367 149.742 61.2349 158.057C61.2349 159.232 61.1157 160.404 60.8808 161.556ZM139.962 158.057H69.982C69.982 143.563 58.2344 131.814 43.7409 131.814C29.2473 131.814 17.498 143.563 17.498 158.057H8.75094V136.459C8.75628 132.453 10.9026 128.753 14.38 126.763C28.6529 118.614 44.8015 114.325 61.2349 114.32H139.962V158.057ZM139.962 105.573H78.3891L79.2327 105.112C97.9316 94.9502 118.702 89.1894 139.962 88.2693V105.573ZM148.709 88.0771H151.184C168.81 88.0575 186.276 91.4033 202.647 97.9364L195.01 105.573H148.709V88.0771ZM227.082 161.556C225.147 171.022 215.905 177.128 206.438 175.193C196.971 173.259 190.865 164.017 192.8 154.549C194.734 145.083 203.978 138.977 213.444 140.912C221.59 142.576 227.438 149.742 227.436 158.057C227.436 159.232 227.317 160.404 227.082 161.556ZM253.679 118.693H240.557V127.441H253.679V145.373C253.689 148.596 251.725 151.497 248.728 152.681L236.183 157.719C236.183 157.317 236.131 156.918 236.104 156.516C236.078 156.114 236.069 155.642 236.026 155.204C235.982 154.766 235.894 154.329 235.825 153.893C235.754 153.455 235.702 153.017 235.615 152.62C235.528 152.221 235.4 151.78 235.286 151.364C235.172 150.949 235.085 150.529 234.953 150.121C234.823 149.716 234.665 149.326 234.517 148.927C234.368 148.53 234.232 148.119 234.079 147.724C233.926 147.331 233.72 146.973 233.536 146.601C233.353 146.229 233.173 145.822 232.969 145.446C232.762 145.071 232.531 144.75 232.333 144.402C232.138 144.051 231.897 143.652 231.648 143.295C231.397 142.935 231.166 142.652 230.926 142.328C230.685 142.004 230.413 141.624 230.134 141.287C229.854 140.951 229.593 140.687 229.32 140.412C229.05 140.138 228.747 139.766 228.447 139.459C228.144 139.153 227.847 138.911 227.546 138.641C227.244 138.37 226.92 138.05 226.587 137.765C226.256 137.482 225.918 137.263 225.587 137.014C225.254 136.765 224.921 136.498 224.572 136.265C224.222 136.034 223.828 135.829 223.453 135.583C223.076 135.338 222.769 135.146 222.415 134.959C222.061 134.77 221.62 134.573 221.218 134.38C220.815 134.188 220.5 134.017 220.128 133.861C219.757 133.702 219.253 133.537 218.817 133.38C218.379 133.222 218.094 133.099 217.722 132.982C217.224 132.828 216.713 132.718 216.204 132.592C215.872 132.513 215.553 132.408 215.217 132.339C214.679 132.229 214.127 132.168 213.581 132.088C213.257 132.045 212.948 131.974 212.624 131.944C211.748 131.857 210.874 131.809 209.956 131.809C195.468 131.823 183.727 143.563 183.713 158.052H148.711V114.318H196.82C197.981 114.318 199.093 113.857 199.911 113.037L211.253 101.695C216.014 103.961 220.643 106.493 225.119 109.28C225.635 109.602 226.211 109.814 226.815 109.901L253.679 113.736V118.693Z" fill="#6C45E5"/>
</g>
<defs>
<clipPath id="clip0_2_221">
<rect width="262.404" height="262.404" fill="white" transform="translate(0.458984 0.524658)"/>
</clipPath>
</defs>
</svg>
