<svg width="208" height="263" viewBox="0 0 208 263" fill="none" xmlns="http://www.w3.org/2000/svg">
<path d="M0 135.573C0 112.345 0 89.1123 0 65.8841C0 56.9548 0.862049 48.1156 3.02789 39.4394C5.96144 27.6837 10.7177 16.713 17.6184 6.74151C20.6806 2.31975 25.0981 0.025242 30.4934 0.0209532C79.3815 -0.00906846 128.274 -0.000490322 177.162 0.00808729C183.003 0.00808729 187.584 2.52561 190.805 7.35052C197.126 16.8202 201.672 27.1005 204.589 38.1098C207.235 48.0985 208.08 58.2672 207.994 68.5732C207.857 84.7248 207.926 100.881 207.891 117.032C207.827 146.947 207.75 176.857 207.698 206.771C207.698 208.59 207.926 210.408 207.938 212.231C208.054 228.503 201.793 241.819 189.123 251.993C180.451 258.958 170.424 262.504 159.286 262.522C122.402 262.573 85.5231 262.633 48.6393 262.496C33.7958 262.44 21.5041 256.384 11.8199 245.19C5.86708 238.316 2.12296 230.3 0.784849 221.289C0.261615 217.776 0.145818 214.182 0.10293 210.623C0.00428789 201.976 0.0514659 193.326 0.0471771 184.675C0.0471771 168.309 0.0471771 151.939 0.0471771 135.573H0ZM103.961 4.37409C79.6259 4.37409 55.287 4.37409 30.9523 4.37409C26.8479 4.37409 23.4898 5.96953 21.1481 9.35339C19.5484 11.6693 18.0945 14.1011 16.7178 16.5586C9.23379 29.9525 5.19803 44.3543 4.46464 59.6568C3.9071 71.3137 5.33527 82.752 8.70198 93.9458C11.8071 104.265 16.4347 113.837 22.6878 122.599C33.0881 137.177 46.4649 148.135 62.831 155.447C72.9354 159.963 83.5073 162.67 94.4995 163.69C108.108 164.96 121.45 163.579 134.493 159.402C145.107 156 154.86 150.94 163.734 144.228C177.239 134.012 187.575 121.21 194.609 105.791C199.61 94.8293 202.504 83.3353 203.349 71.2966C203.971 62.393 203.384 53.5881 201.651 44.8604C199.151 32.2728 194.304 20.6329 187.245 9.91951C184.843 6.27403 181.455 4.38267 177.08 4.37838C152.707 4.3698 128.334 4.37409 103.965 4.37409H103.961ZM104.042 168.498C85.9262 168.498 67.806 168.511 49.6901 168.494C41.3484 168.485 33.5256 170.454 26.3976 174.777C15.7399 181.24 8.75345 190.513 5.69982 202.663C3.64548 210.837 3.91568 218.956 6.51469 226.963C12.6348 245.808 29.7171 258.186 49.5142 258.186C85.8576 258.186 122.201 258.207 158.54 258.173C171.085 258.16 181.828 253.644 190.68 244.762C203.825 231.574 207.544 211.197 199.374 194.523C191.122 177.672 177.299 168.845 158.497 168.562C140.347 168.288 122.192 168.502 104.038 168.502L104.042 168.498ZM202.938 191.606L203.345 191.49V96.1116C191.542 129.534 168.97 152.166 135.41 163.819C135.453 163.922 135.496 164.029 135.535 164.132C135.981 164.132 136.423 164.132 136.869 164.132C143.838 164.132 150.807 164.188 157.772 164.119C168.662 164.016 178.556 167.04 187.408 173.392C192.906 177.337 197.384 182.235 200.875 188.034C201.582 189.209 202.247 190.41 202.933 191.602L202.938 191.606ZM72.172 164.136C72.1891 164.025 72.2063 163.913 72.2192 163.806C38.6336 152.304 16.1045 129.736 4.52898 96.206V191.782C4.63191 191.812 4.73484 191.842 4.83777 191.876C5.02648 191.606 5.23663 191.349 5.40389 191.061C6.26165 189.582 7.01648 188.029 7.97718 186.623C17.8414 172.131 31.5056 164.505 49.0768 164.162C56.3292 164.021 63.5858 164.136 70.8382 164.136C71.2799 164.136 71.726 164.136 72.1677 164.136H72.172Z" fill="#0F0A18"/>
<path d="M129.874 66.2186C129.917 80.2258 118.298 91.9086 104.437 92.0758C89.9063 92.2517 78.1292 80.4832 78.0992 66.373C78.0649 51.924 89.5331 40.3314 103.909 40.2542C118.204 40.177 129.835 51.8082 129.878 66.2186H129.874ZM82.4866 66.017C82.4352 77.9185 92.0635 87.6712 103.896 87.6969C115.738 87.7227 125.409 78.1372 125.482 66.3044C125.555 54.4887 115.974 44.7017 104.291 44.6459C92.248 44.5902 82.5381 54.107 82.4866 66.0213V66.017Z" fill="#0F0A18"/>
<path d="M17.2156 66.0944C17.3271 51.7226 28.9412 40.1814 43.21 40.2629C57.6333 40.3444 69.1015 52.0442 68.9986 66.5018C68.9 80.3289 57.3459 92.3461 42.4295 92.0759C28.6538 91.8272 17.1084 80.0501 17.2156 66.0944ZM64.6069 66.223C64.5554 54.2444 54.9656 44.6117 43.12 44.6418C31.0942 44.6675 21.5859 54.3602 21.6288 66.5447C21.6674 78.1888 31.4844 87.7528 43.3301 87.6971C55 87.6413 64.6583 77.8929 64.6069 66.223Z" fill="#0F0A18"/>
<path d="M190.753 66.0943C190.86 80.093 179.294 91.8571 165.428 92.0673C150.593 92.2946 139.107 80.3674 138.979 66.6047C138.842 52.1214 150.25 40.3958 164.553 40.2714C178.993 40.147 190.646 51.6324 190.753 66.0943ZM143.362 66.1844C143.358 77.9743 152.977 87.6627 164.712 87.6884C176.639 87.7142 186.336 78.1072 186.34 66.253C186.349 54.2786 176.716 44.6245 164.78 44.6331C152.982 44.6417 143.366 54.3172 143.362 66.1801V66.1844Z" fill="#0F0A18"/>
<path d="M73.5059 146.093C59.2671 146.184 47.5972 134.316 47.6358 120.198C47.6701 105.817 59.2671 94.3319 73.7075 94.3533C87.8734 94.3748 99.4961 106.04 99.4703 120.189C99.4446 134.518 87.7061 146.179 73.5102 146.089L73.5059 146.093ZM73.7761 141.715C85.7204 141.65 95.1472 131.812 95.0614 120.043C94.9757 108.253 85.2658 98.6421 73.5145 98.715C61.5015 98.7922 51.9375 108.463 52.0362 120.429C52.1348 132.086 61.6988 141.882 73.7718 141.715H73.7761Z" fill="#0F0A18"/>
<path d="M134.218 146.093C119.919 146.012 108.13 134.162 108.516 119.533C108.897 105.195 120.794 94.173 134.591 94.3446C148.998 94.5247 160.466 106.156 160.333 120.528C160.204 134.719 148.436 146.239 134.218 146.093ZM134.403 98.7192C122.647 98.672 113.01 108.283 112.894 120.082C112.783 131.408 122.188 142.817 136.453 141.672C146.369 140.878 155.74 132.691 155.911 120.373C156.078 108.412 146.411 98.7663 134.403 98.7192Z" fill="#0F0A18"/>
<path d="M134.93 13.3291C142.916 13.3205 149.503 19.8824 149.486 27.8338C149.469 35.974 143.036 42.4844 134.994 42.4972C126.923 42.5144 120.331 36.0126 120.292 28.0097C120.254 19.9467 126.841 13.3419 134.93 13.3291ZM134.805 38.0798C140.497 38.1441 144.987 33.7524 145.12 27.9925C145.244 22.5329 140.595 17.768 135.067 17.6865C129.427 17.6007 124.74 22.2155 124.692 27.8981C124.65 33.465 129.17 38.0154 134.81 38.0798H134.805Z" fill="#0F0A18"/>
<path d="M73.0426 42.5016C64.9968 42.5316 58.5293 36.0469 58.4778 27.9111C58.4306 19.9982 64.9668 13.3677 72.8539 13.3334C81.0455 13.2948 87.6417 19.7967 87.6717 27.9411C87.7017 35.9183 81.1141 42.4758 73.0426 42.5016ZM73.0512 38.0841C78.7081 38.0627 83.2757 33.5508 83.2628 28.0054C83.2499 22.2884 78.6695 17.6866 72.9954 17.6866C67.45 17.6866 62.758 22.4514 62.8352 28.0011C62.9124 33.6538 67.4242 38.1056 73.0512 38.0841Z" fill="#0F0A18"/>
<path d="M48.6738 187.446C63.1271 187.57 74.5182 199.279 74.3852 213.878C74.2566 227.937 62.3594 239.392 48.0348 239.259C33.8474 239.126 22.3277 227.25 22.5893 212.754C22.8467 198.593 34.5722 187.33 48.6738 187.446ZM70.0278 213.376C70.1264 201.732 60.408 191.906 48.6824 191.799C36.8968 191.692 27.0926 201.299 26.9596 213.089C26.8267 224.977 36.4808 234.786 48.3951 234.872C60.2021 234.953 69.9249 225.295 70.0278 213.376Z" fill="#0F0A18"/>
<path d="M159.364 187.442C173.474 187.356 185.328 198.966 185.392 212.935C185.461 227.444 173.967 239.191 159.638 239.255C145.438 239.324 133.652 227.757 133.575 213.689C133.498 199.193 144.958 187.528 159.364 187.438V187.442ZM159.544 191.799C147.891 191.692 138.074 201.372 137.937 213.115C137.8 224.879 147.458 234.76 159.201 234.872C171.128 234.983 180.902 225.385 181.005 213.458C181.108 201.651 171.454 191.911 159.544 191.799Z" fill="#0F0A18"/>
<path d="M92.505 66.1502C92.4149 59.7427 97.8703 54.5447 104.123 54.6691C110.531 54.7934 115.544 59.9357 115.459 66.3303C115.373 72.7078 110.188 77.7385 103.785 77.6571C97.5358 77.5756 92.4192 72.3604 92.505 66.1545V66.1502ZM111.071 66.1716C111.101 62.2988 107.885 59.0394 104.02 59.0222C100.148 59.0093 96.9396 62.183 96.8839 66.0901C96.8281 69.9972 99.9761 73.2224 103.883 73.2567C107.872 73.2911 111.041 70.1688 111.071 66.1716Z" fill="#0F0A18"/>
<path d="M31.6431 66.18C31.6603 59.7683 36.7296 54.686 43.1199 54.6817C49.4717 54.6817 54.6311 59.8669 54.5882 66.21C54.541 72.6089 49.4331 77.6697 43.0385 77.6569C36.7296 77.644 31.626 72.5017 31.6431 66.18ZM50.2093 66.1672C50.1707 62.1743 46.9627 58.9877 43.0385 59.0477C39.1314 59.1078 35.992 62.3115 36.022 66.21C36.052 70.1901 39.2214 73.2823 43.2443 73.2566C47.0828 73.2308 50.2479 70.0099 50.2093 66.1672Z" fill="#0F0A18"/>
<path d="M176.322 66.1844C176.347 72.4976 171.231 77.6441 164.922 77.657C158.489 77.6699 153.398 72.5748 153.372 66.0944C153.346 59.837 158.502 54.7119 164.853 54.6819C171.196 54.6518 176.3 59.7684 176.322 66.1844ZM171.947 66.1416C171.951 62.3031 168.782 59.0736 164.973 59.0393C160.963 59.0007 157.768 62.183 157.76 66.2273C157.751 70.0572 160.938 73.2481 164.789 73.261C168.773 73.2781 171.943 70.1259 171.947 66.1416Z" fill="#0F0A18"/>
<path d="M85.5706 120.223C85.6178 126.746 80.2224 132.24 73.7292 132.288C66.9743 132.339 61.5662 127.012 61.5276 120.27C61.489 113.558 66.8457 108.193 73.6306 108.159C80.1581 108.12 85.5234 113.546 85.5706 120.223ZM81.2003 120.283C81.2217 115.973 77.8036 112.563 73.4504 112.559C69.3589 112.559 65.8764 116.05 65.885 120.15C65.8936 124.383 69.2946 127.87 73.4333 127.883C77.7392 127.896 81.1789 124.529 81.2003 120.279V120.283Z" fill="#0F0A18"/>
<path d="M146.445 120.086C146.523 126.751 141.166 132.253 134.531 132.288C127.943 132.322 122.514 126.927 122.398 120.502C122.278 113.825 127.583 108.236 134.046 108.155C140.9 108.069 146.368 113.327 146.445 120.086ZM126.768 120.283C126.781 124.525 130.208 127.892 134.518 127.887C138.657 127.887 142.092 124.379 142.079 120.163C142.066 116.038 138.61 112.559 134.518 112.559C130.165 112.559 126.755 115.956 126.764 120.279L126.768 120.283Z" fill="#0F0A18"/>
</svg>
