<svg width="167" height="23" viewBox="0 0 167 23" fill="none" xmlns="http://www.w3.org/2000/svg">
<path d="M25.0918 21.8018V2.08057H36.8125V4.39072H27.5429V10.4475H33.6576V12.7589H27.5429V19.464H37.4332V21.8018H25.0918Z" fill="white"/>
<path d="M41.4053 21.8018V2.61561L43.8564 1.4599V21.8018H41.4053Z" fill="white"/>
<path d="M53.9099 22.1405C51.956 22.1405 50.4033 21.441 49.2518 20.0419C48.1003 18.6428 47.5229 16.8253 47.5195 14.5894C47.5195 12.2394 48.1016 10.3988 49.2657 9.06771C50.4298 7.7366 51.9778 7.06978 53.9099 7.06726C55.6372 7.06726 57.0598 7.64469 58.1777 8.79956C59.2956 9.95442 59.8546 11.659 59.8546 13.9134C59.8539 14.46 59.8258 15.0062 59.7703 15.55H50.0261C50.1209 16.8652 50.5297 17.9218 51.2523 18.72C51.5906 19.1061 52.0094 19.4133 52.4792 19.6202C52.949 19.827 53.4584 19.9284 53.9716 19.9172C54.5491 19.9243 55.122 19.813 55.6548 19.5902C56.1877 19.3674 56.6692 19.0379 57.0698 18.6218L58.568 20.2811C57.3258 21.5207 55.7731 22.1405 53.9099 22.1405ZM49.9933 13.4627H57.3758C57.3556 11.9796 57.0031 10.9045 56.3182 10.2373C56.0049 9.91646 55.6302 9.66198 55.2164 9.48896C54.8027 9.31593 54.3584 9.22791 53.9099 9.23011C52.8012 9.23011 51.8901 9.5822 51.1767 10.2864C50.4633 10.9905 50.0706 12.0493 49.9984 13.4627H49.9933Z" fill="white"/>
<path d="M68.3692 22.1405C66.5269 22.1405 65.0712 21.4783 64.0019 20.1538C62.9327 18.8294 62.3972 16.983 62.3955 14.6145C62.3955 12.2477 62.9356 10.3975 64.0158 9.06387C65.0959 7.73023 66.5844 7.06342 68.4812 7.06342C71.0352 7.06342 72.7163 8.18093 73.5245 10.416L71.2144 11.2607C70.7259 9.98667 69.8258 9.34965 68.5139 9.34965C67.3112 9.34965 66.4098 9.81126 65.8097 10.7345C65.2097 11.6577 64.9092 12.954 64.9083 14.6233C64.9083 16.2767 65.2088 17.5583 65.8097 18.4681C66.4107 19.3779 67.284 19.8337 68.4296 19.8353C69.9328 19.8353 70.9097 19.1219 71.3604 17.6951L73.6429 18.4505C73.2853 19.6339 72.6512 20.545 71.7406 21.1837C70.83 21.8224 69.7062 22.1413 68.3692 22.1405Z" fill="white"/>
<path d="M80.6522 22.1405C78.6236 22.1405 77.6093 20.9948 77.6093 18.7036V9.54606H75.2715V7.40586H77.6093V2.6433L80.0605 1.4599V7.4046H83.6107V9.5448H80.0605V17.8853C80.0605 18.5231 80.1637 19.0112 80.3702 19.3494C80.5766 19.6876 80.9711 19.8555 81.5536 19.853C82.1914 19.853 82.9048 19.6012 83.6938 19.0976L83.4118 21.4896C82.5589 21.9289 81.6114 22.1523 80.6522 22.1405Z" fill="white"/>
<path d="M87.0205 21.8019V7.40466H89.4717V9.29306C90.1481 7.80919 91.2845 7.06726 92.8809 7.06726C93.7823 7.06726 94.5242 7.31149 95.1067 7.79996L94.7403 10.1101C94.136 9.69606 93.4182 9.47925 92.6857 9.48946C91.8406 9.48946 91.094 9.81846 90.4461 10.4765C89.7981 11.1345 89.4742 12.205 89.4742 13.688V21.8019H87.0205Z" fill="white"/>
<path d="M99.8967 4.34793C99.752 4.49057 99.5802 4.60273 99.3914 4.67777C99.2026 4.7528 99.0007 4.78919 98.7976 4.78478C98.5953 4.78976 98.3941 4.75222 98.2072 4.67458C98.0202 4.59695 97.8517 4.48095 97.7124 4.33408C97.5719 4.19386 97.4609 4.02695 97.3858 3.84318C97.3108 3.6594 97.2733 3.46247 97.2756 3.26398C97.2725 3.05778 97.3108 2.85306 97.3883 2.66191C97.4657 2.47076 97.5806 2.29706 97.7263 2.15108C97.8623 2.00284 98.028 1.8848 98.2125 1.80456C98.3971 1.72433 98.5964 1.68369 98.7976 1.68527C99.0032 1.68176 99.2072 1.7214 99.3965 1.80163C99.5858 1.88187 99.7562 2.00091 99.8967 2.15108C100.042 2.29706 100.157 2.47076 100.235 2.66191C100.312 2.85306 100.35 3.05778 100.347 3.26398C100.352 3.46609 100.314 3.66692 100.237 3.85359C100.159 4.04026 100.043 4.20864 99.8967 4.34793ZM97.5853 21.8018V7.40462H100.038V21.8018H97.5853Z" fill="white"/>
<path d="M109.556 22.1405C107.714 22.1405 106.259 21.4783 105.188 20.1538C104.118 18.8294 103.583 16.983 103.582 14.6145C103.582 12.2477 104.122 10.3975 105.202 9.06387C106.282 7.73023 107.771 7.06342 109.668 7.06342C112.223 7.06342 113.904 8.18093 114.711 10.416L112.401 11.2607C111.912 9.98415 111.011 9.34587 109.697 9.34587C108.495 9.34587 107.593 9.80748 106.991 10.7307C106.389 11.6539 106.089 12.9502 106.09 14.6196C106.09 16.273 106.39 17.5546 106.991 18.4644C107.592 19.3741 108.466 19.8299 109.612 19.8316C111.114 19.8316 112.09 19.1182 112.542 17.6914L114.824 18.4467C114.467 19.6301 113.833 20.5412 112.922 21.1799C112.011 21.8186 110.889 22.1388 109.556 22.1405Z" fill="white"/>
<path d="M118.295 21.8018V2.08057H131.029V5.26442H121.675V10.0295H127.649V13.2134H121.675V21.8056L118.295 21.8018Z" fill="white"/>
<path d="M136.776 4.85527C136.598 5.04283 136.383 5.19112 136.145 5.29064C135.906 5.39015 135.65 5.43869 135.391 5.43313C134.868 5.43313 134.366 5.22528 133.996 4.85532C133.626 4.48536 133.418 3.98358 133.418 3.46037C133.413 3.20201 133.461 2.94534 133.561 2.70685C133.66 2.46836 133.809 2.25332 133.996 2.07554C134.179 1.89257 134.397 1.74831 134.636 1.6514C134.876 1.55449 135.133 1.50692 135.391 1.51154C135.647 1.50918 135.901 1.55786 136.138 1.65471C136.375 1.75156 136.59 1.89465 136.771 2.07562C136.952 2.25659 137.095 2.47181 137.192 2.7087C137.289 2.9456 137.337 3.19942 137.335 3.45534C137.341 3.71431 137.294 3.97181 137.198 4.21238C137.102 4.45295 136.959 4.67162 136.776 4.85527ZM133.733 21.8018V7.40462H137.03V21.8018H133.733Z" fill="white"/>
<path d="M145.624 22.1405C144.494 22.1478 143.376 21.9175 142.341 21.4644C141.317 21.0137 140.542 20.4128 140.017 19.6616L142.27 17.7455C143.285 18.7585 144.403 19.2655 145.624 19.2663C147.182 19.2663 147.962 18.7967 147.962 17.8576C147.958 17.6918 147.92 17.5286 147.85 17.3784C147.779 17.2282 147.679 17.0942 147.554 16.9851C147.299 16.7346 147.004 16.5293 146.68 16.3783C146.37 16.2373 145.867 16.0271 145.169 15.7488C143.516 15.2033 142.309 14.5789 141.549 13.8755C140.788 13.1722 140.408 12.2377 140.407 11.0719C140.407 9.81295 140.891 8.8314 141.858 8.12723C142.826 7.42307 144.052 7.07098 145.536 7.07098C147.718 7.07098 149.439 7.81292 150.697 9.29678L148.415 11.1562C147.57 10.3497 146.612 9.94598 145.542 9.94514C144.245 9.94514 143.597 10.3396 143.597 11.1285C143.597 11.523 143.837 11.8608 144.316 12.142C144.795 12.4231 145.495 12.7144 146.415 13.0157C147.975 13.5419 149.154 14.1617 149.951 14.8751C150.748 15.5885 151.147 16.5839 151.148 17.8613C151.148 19.2336 150.65 20.2902 149.655 21.0313C148.66 21.7724 147.316 22.1421 145.624 22.1405Z" fill="white"/>
<path d="M154.386 21.8018V2.97945L157.682 1.4574V8.75924C158.621 7.63123 159.889 7.06764 161.485 7.06848C162.988 7.06848 164.214 7.53807 165.162 8.47723C166.111 9.4164 166.585 10.9095 166.585 12.9565V21.8031H163.289V13.4941C163.289 11.2968 162.396 10.1982 160.611 10.1982C158.658 10.1982 157.682 11.2784 157.682 13.4387V21.8056L154.386 21.8018Z" fill="white"/>
<path fill-rule="evenodd" clip-rule="evenodd" d="M18.8688 2.79317C19.74 2.58796 20.6628 3.10035 20.868 3.97153C21.1198 4.84272 20.5596 5.71264 19.735 5.96947C18.8638 6.17467 17.9423 5.66229 17.7371 4.7911C17.6776 4.5856 17.6598 4.37029 17.6848 4.15782C17.7097 3.94535 17.7769 3.74001 17.8823 3.55387C17.9878 3.36774 18.1294 3.20455 18.2988 3.07392C18.4682 2.94328 18.662 2.84783 18.8688 2.79317Z" fill="white"/>
<path fill-rule="evenodd" clip-rule="evenodd" d="M6.52144 7.1994H6.57432C3.03922 10.4726 1.14326 14.8336 0.783203 20.315V22.0574L21.3291 22.109L6.57432 7.1994H6.52144Z" fill="white"/>
<path fill-rule="evenodd" clip-rule="evenodd" d="M6.41905 5.86747C10.0058 2.84602 14.4624 1.10239 19.8431 0.640365L0.884766 0.538391L6.41905 5.86747Z" fill="white"/>
</svg>
