<svg width="167" height="22" viewBox="0 0 167 22" fill="none" xmlns="http://www.w3.org/2000/svg">
<path d="M24.666 21.6013V1.88007H36.3867V4.19022H27.1172V10.247H33.2318V12.5584H27.1172V19.2635H37.0074V21.6013H24.666Z" fill="#0F0A18"/>
<path d="M40.9795 21.6013V2.41514L43.4306 1.25943V21.6013H40.9795Z" fill="#0F0A18"/>
<path d="M53.4841 21.94C51.5302 21.94 49.9776 21.2404 48.826 19.8413C47.6745 18.4422 47.0971 16.6248 47.0938 14.3889C47.0938 12.0389 47.6758 10.1983 48.8399 8.86718C50.004 7.53606 51.5521 6.86925 53.4841 6.86673C55.2114 6.86673 56.634 7.44416 57.7519 8.59903C58.8699 9.75389 59.4288 11.4585 59.4288 13.7128C59.4281 14.2594 59.4 14.8057 59.3445 15.3495H49.6003C49.6951 16.6646 50.1039 17.7213 50.8265 18.5195C51.1648 18.9055 51.5836 19.2128 52.0534 19.4197C52.5232 19.6265 53.0326 19.7279 53.5458 19.7167C54.1233 19.7238 54.6962 19.6125 55.229 19.3897C55.7619 19.1669 56.2435 18.8373 56.6441 18.4213L58.1422 20.0805C56.9 21.3202 55.3473 21.94 53.4841 21.94ZM49.5676 13.2621H56.95C56.9298 11.7791 56.5773 10.704 55.8925 10.0367C55.5791 9.71593 55.2044 9.46145 54.7906 9.28843C54.3769 9.1154 53.9326 9.02738 53.4841 9.02958C52.3754 9.02958 51.4644 9.38167 50.751 10.0858C50.0376 10.79 49.6448 11.8488 49.5726 13.2621H49.5676Z" fill="#0F0A18"/>
<path d="M67.9434 21.94C66.1011 21.94 64.6454 21.2778 63.5761 19.9534C62.5069 18.629 61.9714 16.7825 61.9697 14.4141C61.9697 12.0472 62.5098 10.197 63.59 8.8634C64.6702 7.52976 66.1586 6.86295 68.0554 6.86295C70.6094 6.86295 72.2905 7.98046 73.0987 10.2155L70.7886 11.0602C70.3001 9.7862 69.4 9.14918 68.0882 9.14918C66.8855 9.14918 65.9841 9.61079 65.384 10.534C64.7839 11.4572 64.4834 12.7535 64.4826 14.4229C64.4826 16.0763 64.783 17.3579 65.384 18.2677C65.9849 19.1775 66.8582 19.6332 68.0038 19.6349C69.507 19.6349 70.4839 18.9215 70.9346 17.4947L73.2171 18.25C72.8595 19.4334 72.2255 20.3445 71.3148 20.9832C70.4042 21.6219 69.2804 21.9408 67.9434 21.94Z" fill="#0F0A18"/>
<path d="M80.2264 21.94C78.1978 21.94 77.1836 20.7944 77.1836 18.5031V9.34559H74.8457V7.20539H77.1836V2.44283L79.6347 1.25943V7.20413H83.1849V9.34433H79.6347V17.6848C79.6347 18.3227 79.7379 18.8107 79.9444 19.1489C80.1509 19.4872 80.5453 19.655 81.1278 19.6525C81.7657 19.6525 82.4791 19.4007 83.268 18.8971L82.986 21.2891C82.1332 21.7284 81.1856 21.9519 80.2264 21.94Z" fill="#0F0A18"/>
<path d="M86.5947 21.6013V7.20412H89.0459V9.09253C89.7223 7.60866 90.8587 6.86673 92.4551 6.86673C93.3565 6.86673 94.0984 7.11096 94.6809 7.59943L94.3145 9.90958C93.7102 9.49553 92.9925 9.27872 92.2599 9.28893C91.4148 9.28893 90.6682 9.61793 90.0203 10.2759C89.3724 10.9339 89.0484 12.0045 89.0484 13.4875V21.6013H86.5947Z" fill="#0F0A18"/>
<path d="M99.4709 4.14742C99.3262 4.29007 99.1544 4.40223 98.9656 4.47727C98.7769 4.5523 98.5749 4.58869 98.3718 4.58428C98.1695 4.58926 97.9683 4.55172 97.7814 4.47408C97.5945 4.39645 97.4259 4.28045 97.2866 4.13358C97.1461 3.99336 97.0351 3.82645 96.9601 3.64268C96.885 3.4589 96.8475 3.26197 96.8498 3.06348C96.8467 2.85727 96.8851 2.65255 96.9625 2.46141C97.0399 2.27026 97.1548 2.09656 97.3005 1.95058C97.4366 1.80234 97.6022 1.6843 97.7868 1.60406C97.9713 1.52383 98.1706 1.48319 98.3718 1.48477C98.5774 1.48126 98.7814 1.5209 98.9707 1.60113C99.1601 1.68137 99.3304 1.80041 99.4709 1.95058C99.6165 2.09656 99.7315 2.27026 99.8089 2.46141C99.8863 2.65255 99.9246 2.85727 99.9216 3.06348C99.9262 3.26559 99.8884 3.46642 99.8108 3.65309C99.7332 3.83976 99.6174 4.00814 99.4709 4.14742ZM97.1595 21.6013V7.20412H99.6119V21.6013H97.1595Z" fill="#0F0A18"/>
<path d="M109.13 21.94C107.289 21.94 105.833 21.2778 104.763 19.9534C103.693 18.629 103.157 16.7825 103.156 14.4141C103.156 12.0472 103.696 10.197 104.777 8.8634C105.857 7.52976 107.345 6.86295 109.242 6.86295C111.797 6.86295 113.478 7.98046 114.285 10.2155L111.975 11.0602C111.487 9.78368 110.585 9.1454 109.271 9.1454C108.069 9.1454 107.167 9.60701 106.565 10.5302C105.964 11.4535 105.663 12.7497 105.664 14.4191C105.664 16.0725 105.965 17.3541 106.565 18.2639C107.166 19.1737 108.04 19.6294 109.187 19.6311C110.688 19.6311 111.665 18.9177 112.116 17.4909L114.399 18.2463C114.041 19.4297 113.407 20.3407 112.496 20.9794C111.586 21.6181 110.464 21.9383 109.13 21.94Z" fill="#0F0A18"/>
<path d="M117.869 21.6013V1.88007H130.603V5.06392H121.249V9.829H127.223V13.0128H121.249V21.6051L117.869 21.6013Z" fill="#0F0A18"/>
<path d="M136.35 4.6548C136.172 4.84236 135.957 4.99065 135.719 5.09017C135.48 5.18968 135.224 5.23822 134.965 5.23266C134.442 5.23266 133.94 5.02481 133.57 4.65485C133.2 4.28489 132.993 3.78311 132.993 3.2599C132.987 3.00154 133.036 2.74487 133.135 2.50638C133.235 2.26789 133.383 2.05285 133.57 1.87507C133.753 1.6921 133.971 1.54784 134.21 1.45093C134.45 1.35402 134.707 1.30645 134.965 1.31107C135.221 1.30871 135.475 1.35739 135.712 1.45424C135.949 1.55109 136.164 1.69418 136.345 1.87515C136.526 2.05612 136.669 2.27134 136.766 2.50823C136.863 2.74513 136.912 2.99895 136.909 3.25487C136.915 3.51384 136.869 3.77134 136.773 4.01191C136.677 4.25248 136.533 4.47115 136.35 4.6548ZM133.307 21.6014V7.20415H136.605V21.6014H133.307Z" fill="#0F0A18"/>
<path d="M145.198 21.94C144.068 21.9473 142.95 21.717 141.915 21.2639C140.891 20.8132 140.116 20.2123 139.591 19.4612L141.844 17.545C142.859 18.5581 143.977 19.065 145.198 19.0658C146.757 19.0658 147.536 18.5963 147.536 17.6571C147.532 17.4913 147.494 17.3281 147.424 17.1779C147.354 17.0277 147.253 16.8938 147.128 16.7846C146.874 16.5341 146.578 16.3289 146.254 16.1778C145.945 16.0368 145.441 15.8266 144.744 15.5484C143.09 15.0028 141.883 14.3784 141.123 13.6751C140.363 12.9717 139.982 12.0372 139.981 10.8714C139.981 9.61248 140.465 8.63093 141.433 7.92676C142.4 7.2226 143.626 6.87051 145.11 6.87051C147.292 6.87051 149.013 7.61245 150.272 9.09631L147.989 10.9558C147.144 10.1492 146.186 9.74551 145.116 9.74467C143.82 9.74467 143.171 10.1391 143.171 10.9281C143.171 11.3225 143.411 11.6604 143.89 11.9415C144.369 12.2227 145.069 12.5139 145.989 12.8152C147.549 13.3415 148.728 13.9613 149.525 14.6747C150.322 15.3881 150.722 16.3835 150.722 17.6609C150.722 19.0331 150.225 20.0898 149.229 20.8309C148.234 21.572 146.89 21.9417 145.198 21.94Z" fill="#0F0A18"/>
<path d="M153.96 21.6013V2.77895L157.256 1.2569V8.55873C158.195 7.43073 159.463 6.86714 161.059 6.86798C162.562 6.86798 163.788 7.33756 164.736 8.27673C165.685 9.2159 166.159 10.709 166.159 12.756V21.6026H162.863V13.2936C162.863 11.0963 161.971 9.9977 160.185 9.9977C158.232 9.9977 157.256 11.0779 157.256 13.2382V21.6051L153.96 21.6013Z" fill="#0F0A18"/>
<path fill-rule="evenodd" clip-rule="evenodd" d="M18.4431 2.59264C19.3142 2.38743 20.237 2.89982 20.4423 3.771C20.694 4.64219 20.1338 5.51211 19.3092 5.76894C18.438 5.97414 17.5165 5.46175 17.3113 4.59057C17.2518 4.38507 17.2341 4.16975 17.259 3.95729C17.284 3.74482 17.3511 3.53948 17.4566 3.35334C17.562 3.16721 17.7036 3.00402 17.873 2.87339C18.0424 2.74275 18.2362 2.6473 18.4431 2.59264Z" fill="#0F0A18"/>
<path fill-rule="evenodd" clip-rule="evenodd" d="M6.09566 6.99893H6.14853C2.61344 10.2722 0.717478 14.6331 0.357422 20.1145V21.8569L20.9033 21.9085L6.14853 6.99893H6.09566Z" fill="#0F0A18"/>
<path fill-rule="evenodd" clip-rule="evenodd" d="M5.99327 5.66697C9.57999 2.64552 14.0366 0.901894 19.4173 0.439864L0.458984 0.337891L5.99327 5.66697Z" fill="#0F0A18"/>
</svg>
