<svg width="143" height="144" viewBox="0 0 143 144" fill="none" xmlns="http://www.w3.org/2000/svg">
<g clip-path="url(#clip0_2_236)" filter="url(#filter0_i_2_236)">
<path d="M111.316 49.6766C110.927 48.8422 110.091 48.3067 109.169 48.3067H81.0819L108.801 4.54105C109.263 3.81111 109.292 2.88673 108.875 2.13068C108.458 1.37212 107.661 0.90271 106.798 0.90271H68.8753C67.977 0.90271 67.1568 1.40989 66.754 2.21345L31.2011 73.3193C30.8336 74.0518 30.8739 74.9239 31.3053 75.623C31.7391 76.3222 32.4999 76.7488 33.3223 76.7488H57.695L31.1369 139.824C30.6842 140.903 31.0872 142.154 32.0849 142.766C32.4688 143.001 32.8954 143.114 33.3198 143.114C34.0001 143.114 34.6708 142.823 35.1355 142.273L110.982 52.2053C111.577 51.4993 111.705 50.5132 111.316 49.6766Z" fill="white"/>
</g>
<defs>
<filter id="filter0_i_2_236" x="0.137695" y="0.902802" width="147.717" height="144.047" filterUnits="userSpaceOnUse" color-interpolation-filters="sRGB">
<feFlood flood-opacity="0" result="BackgroundImageFix"/>
<feBlend mode="normal" in="SourceGraphic" in2="BackgroundImageFix" result="shape"/>
<feColorMatrix in="SourceAlpha" type="matrix" values="0 0 0 0 0 0 0 0 0 0 0 0 0 0 0 0 0 0 127 0" result="hardAlpha"/>
<feOffset dx="5.50497" dy="1.83499"/>
<feGaussianBlur stdDeviation="2.75249"/>
<feComposite in2="hardAlpha" operator="arithmetic" k2="-1" k3="1"/>
<feColorMatrix type="matrix" values="0 0 0 0 0.423529 0 0 0 0 0.270588 0 0 0 0 0.898039 0 0 0 1 0"/>
<feBlend mode="normal" in2="shape" result="effect1_innerShadow_2_236"/>
</filter>
<clipPath id="clip0_2_236">
<rect width="142.212" height="142.212" fill="white" transform="translate(0.137695 0.902802)"/>
</clipPath>
</defs>
</svg>
