<svg width="249" height="100" viewBox="0 0 249 100" fill="none" xmlns="http://www.w3.org/2000/svg">
<path d="M103.678 37.3391H120.193V45.5985H103.678V37.3391Z" fill="white"/>
<path d="M244.65 24.9941L216.602 20.9888C211.488 17.847 206.18 15.0345 200.708 12.5664C182.637 4.38097 163.024 0.157198 143.183 0.179039H138.311C114.897 0.19584 91.858 6.07115 71.2936 17.269L57.1387 24.9908C40.5696 25.1772 24.3196 29.5841 9.92455 37.7898C4.07444 41.1449 0.462229 47.3697 0.452148 54.1119V78.6296C0.452148 80.9112 2.30026 82.7593 4.58183 82.7593H18.446C22.9554 95.6238 37.0397 102.398 49.9042 97.8886C56.9858 95.4071 62.552 89.8392 65.0335 82.7593H175.349C179.858 95.6238 193.943 102.398 206.807 97.8886C213.887 95.4071 219.455 89.8392 221.936 82.7593H223.418C223.944 82.7593 224.465 82.6602 224.954 82.4653L238.327 77.0991C244.302 74.7335 248.215 68.9506 248.193 62.5275V29.0818C248.193 27.0287 246.683 25.2865 244.65 24.9941ZM57.9233 77.8047C56.0971 86.7411 47.3723 92.5056 38.4358 90.6793C29.4977 88.853 23.7333 80.1283 25.5596 71.1901C27.3875 62.2537 36.1123 56.4893 45.0487 58.3155C52.7385 59.8864 58.2593 66.6522 58.2577 74.5016C58.2577 75.6105 58.1451 76.7177 57.9233 77.8047ZM132.58 74.5016H66.5154C66.5154 60.8189 55.425 49.7269 41.7423 49.7269C28.0596 49.7269 16.9675 60.8189 16.9675 74.5016H8.70984V54.1119C8.71488 50.33 10.7411 46.8371 14.024 44.9587C27.4984 37.2656 42.7436 33.2165 58.2577 33.2115H132.58V74.5016ZM132.58 24.9538H74.4522L75.2485 24.5186C92.9013 14.9253 112.51 9.48679 132.58 8.61818V24.9538ZM140.838 8.43673H143.175C159.815 8.41825 176.303 11.5768 191.758 17.7445L184.549 24.9538H140.838V8.43673ZM214.826 77.8047C213 86.7411 204.275 92.5056 195.337 90.6793C186.401 88.853 180.636 80.1283 182.462 71.1901C184.289 62.2537 193.015 56.4893 201.952 58.3155C209.641 59.8864 215.162 66.6522 215.161 74.5016C215.161 75.6105 215.048 76.7177 214.826 77.8047ZM239.935 37.3395H227.548V45.5989H239.935V62.5275C239.945 65.5702 238.091 68.3088 235.261 69.426L223.418 74.1824C223.418 73.8027 223.369 73.4264 223.344 73.0467C223.319 72.6669 223.311 72.2217 223.27 71.8084C223.228 71.3951 223.146 70.9818 223.081 70.5702C223.013 70.1569 222.965 69.7436 222.882 69.3689C222.8 68.9926 222.679 68.5759 222.571 68.1828C222.464 67.7913 222.382 67.3948 222.257 67.0101C222.135 66.627 221.985 66.259 221.846 65.8827C221.705 65.508 221.577 65.1199 221.432 64.747C221.288 64.3757 221.093 64.038 220.92 63.6868C220.747 63.3357 220.577 62.9509 220.384 62.5964C220.189 62.2419 219.971 61.9395 219.784 61.6102C219.599 61.2792 219.373 60.9029 219.137 60.5652C218.9 60.2258 218.682 59.9587 218.455 59.6529C218.228 59.3471 217.971 58.9876 217.708 58.67C217.444 58.3525 217.197 58.1038 216.94 57.8434C216.684 57.5847 216.399 57.2336 216.115 56.9446C215.829 56.6556 215.549 56.4271 215.265 56.1717C214.979 55.9164 214.673 55.6139 214.359 55.3451C214.047 55.078 213.727 54.8713 213.415 54.6361C213.101 54.4009 212.787 54.1489 212.457 53.9288C212.126 53.7104 211.755 53.5172 211.4 53.2853C211.044 53.0535 210.755 52.872 210.421 52.6956C210.087 52.5175 209.67 52.331 209.29 52.1496C208.911 51.9681 208.613 51.8068 208.262 51.659C207.911 51.5095 207.435 51.3532 207.024 51.2054C206.611 51.0558 206.342 50.9399 205.991 50.829C205.52 50.6845 205.038 50.5804 204.557 50.4611C204.243 50.3871 203.943 50.288 203.625 50.2225C203.118 50.1183 202.597 50.0612 202.081 49.9856C201.775 49.9453 201.483 49.8781 201.177 49.8495C200.35 49.7672 199.526 49.7218 198.659 49.7218C184.981 49.7353 173.897 60.8189 173.884 74.4966H140.84V33.2098H186.258C187.353 33.2098 188.403 32.7747 189.176 32.0001L199.883 21.2929C204.378 23.4316 208.748 25.8224 212.973 28.4534C213.46 28.7575 214.005 28.9575 214.574 29.0398L239.935 32.6604V37.3395Z" fill="white"/>
</svg>
